<svg height="484pt" viewBox="-17 0 484 484.2571" width="484pt" xmlns="http://www.w3.org/2000/svg"><path d="m58.511719 229.636719v19.910156c0 31.855469 26.140625 57.777344 58 57.777344 31.855469 0 58-25.921875 58-57.777344v-19.910156c0-31.859375-26.144531-57.777344-58-57.777344-31.859375 0-58 25.917969-58 57.777344zm100 0v19.910156c0 23.195313-18.804688 42-42 42-23.195313 0-42-18.804687-42-42v-19.910156c0-23.199219 18.804687-42 42-42 23.195312 0 42 18.800781 42 42zm0 0"/><path d="m150.527344 484.253906h165.382812c3.117188.050782 5.96875-1.734375 7.285156-4.5625l50-109.9375c1.125-2.507812.914063-5.414062-.558593-7.734375-1.460938-2.3125-3.992188-3.726562-6.726563-3.765625h-131.359375c-6.757812-26.496094-30.632812-45.027344-57.976562-45h-12.5625c-3.566407-.027344-6.71875 2.324219-7.699219 5.753906l-14.652344 51.601563-9.535156-17.042969 8.929688-28.511718c.761718-2.496094.324218-5.207032-1.1875-7.332032-1.484376-2.105468-3.871094-3.390625-6.445313-3.46875h-31.78125c-2.574219.089844-4.957031 1.371094-6.449219 3.464844-1.496094 2.09375-1.933594 4.765625-1.1875 7.226562l8.972656 28.6875-7.945312 15.351563-13.085938-51.019531c-.96875-3.777344-4.515624-6.304688-8.402343-5.980469l-13.855469 1.140625c-16.777344.105469-32.738281 7.246094-44 19.679688-11.210938 12.402343-17.175781 29.015624-15.175781 45.640624v98.0625c.019531 2.101563.886719 4.105469 2.398437 5.5625 1.515625 1.457032 3.550782 2.242188 5.652344 2.183594zm160.226562-16h-152.425781l42.730469-94h152.421875zm-188.222656-138-4.945312 16h-.113282l-4.945312-16zm-106.035156 47c-1.242188-12.300781 2.785156-24.550781 11.078125-33.722656 8.292969-9.167969 20.078125-14.402344 32.441406-14.398438.21875 0 .441406-.011718.660156-.027343l7.445313-.613281 16.621094 64.800781c.808593 3.15625 3.453124 5.507812 6.683593 5.941406s6.402344-1.132813 8.015625-3.964844c.054688-.101562.105469-.285156.15625-.382812l16.859375-32.632813h2.308594l18.328125 32.824219c1.53125 2.796875 4.574219 4.421875 7.75 4.144531 3.273438-.273437 6.039062-2.539062 6.949219-5.695312l18.257812-64.273438h6.523438c18.519531-.046875 35.066406 11.566406 41.3125 29h-21.976563c-3.136718 0-5.984375 1.832032-7.285156 4.6875l-47.871094 105.3125h-124.242187v-90.199218c.007812-.265626.003906-.535157-.015625-.800782zm0 0"/><path d="m327.730469 0c-67.824219 0-123.027344 55.179688-123.027344 123-.199219 43.71875 22.996094 84.203125 60.808594 106.148438v33.28125c.011719 2.914062 1.601562 5.59375 4.152343 7.003906 2.554688 1.40625 5.667969 1.320312 8.140626-.226563l37.921874-23.785156c3.964844.382813 7.992188.578125 12 .578125 67.929688 0 123-55.070312 123-123s-55.070312-123-123-123zm0 230c-4.328125 0-8.648438-.257812-12.945313-.773438-1.824218-.21875-3.671875.191407-5.230468 1.167969l-28.042969 17.574219v-23.507812c.007812-2.949219-1.605469-5.660157-4.199219-7.054688-47.695312-25.445312-68.933594-82.453125-49.511719-132.902344 19.417969-50.445312 73.402344-78.496094 125.847657-65.390625 52.441406 13.105469 86.882812 63.253907 80.292968 116.902344-6.59375 53.652344-52.152344 93.972656-106.207031 93.988281zm0 0"/><path d="m331.964844 44.199219c-1.59375-.511719-3.3125-.511719-4.910156 0l-69.042969 22.285156c-3.296875 1.070313-5.519531 4.148437-5.5 7.613281v94.3125c-.019531 3.464844 2.203125 6.542969 5.5 7.613282l69.070312 22.285156c1.589844.511718 3.300781.511718 4.894531 0l69.042969-22.285156c3.292969-1.070313 5.511719-4.152344 5.492188-7.613282v-94.3125c.019531-3.464844-2.207031-6.542968-5.5-7.613281zm-2.453125 16.019531 43.03125 13.878906-43.03125 13.878906-43.03125-13.878906zm-61 24.867188 52 16.796874v77.5l-52-16.796874zm68 94.945312v-77.5l54-17.445312v77.5zm0 0"/></svg>